<svg viewBox="0 0 1295 1295"  xmlns="http://www.w3.org/2000/svg">
<path id="Subtract" fill-rule="evenodd" clip-rule="evenodd" d="M1295 120C1295 53.7258 1241.27 0 1175 0H120C53.7258 0 0 53.7258 0 120V1175C0 1241.27 53.7258 1295 120 1295H1175C1241.27 1295 1295 1241.27 1295 1175V120ZM909.193 497.555H202.947C170.379 497.555 144 471.029 144 438.278C144 405.527 170.379 379 202.947 379H909.193C941.761 379 968.14 405.527 968.14 438.278C968.14 471.029 941.761 497.555 909.193 497.555ZM1151.17 438.667C1151.17 471.62 1124.88 498.333 1092.43 498.333C1059.99 498.333 1033.7 471.62 1033.7 438.667C1033.7 405.714 1059.99 379 1092.43 379C1124.88 379 1151.17 405.714 1151.17 438.667ZM1092.43 916C1124.88 916 1151.17 889.286 1151.17 856.333C1151.17 823.38 1124.88 796.667 1092.43 796.667C1059.99 796.667 1033.7 823.38 1033.7 856.333C1033.7 889.286 1059.99 916 1092.43 916ZM202.947 915.222H909.193C941.761 915.222 968.14 888.695 968.14 855.945C968.14 823.194 941.761 796.667 909.193 796.667H202.947C170.379 796.667 144 823.194 144 855.945C144 888.695 170.379 915.222 202.947 915.222ZM1092.2 707.582H385.668C353.086 707.582 326.697 681.055 326.697 648.304C326.697 615.553 353.086 589.027 385.668 589.027H1092.2C1124.78 589.027 1151.17 615.553 1151.17 648.304C1151.17 681.055 1124.78 707.582 1092.2 707.582ZM261.525 648.693C261.525 681.646 235.216 708.36 202.762 708.36C170.309 708.36 144 681.646 144 648.693C144 615.74 170.309 589.027 202.762 589.027C235.216 589.027 261.525 615.74 261.525 648.693Z"/>
</svg>
